<svg xmlns="http://www.w3.org/2000/svg" viewBox="0 0 1024 1024"><path d="M992.113 443.116l-388.67-404.17C579.333 13.908 547.01 0 512.44 0c-34.582 0-66.899 13.777-91.012 38.946L32.895 443.116C-7.243 484.84-2.086 520.882 4.543 535.982c4.763 10.73 20.668 40.002 66.636 40.002h56.961v310.904c0 69.112 48.621 134.248 118.258 136.986v.126h75.182c70.321 0 93.534-46.117 94.612-113.968l.205-.131V694.937c0-35.243-5.3-54.976 30.737-54.976h130.751c36.025 0 30.668 19.613 30.668 54.976l.046 133.467h-.046v76.625c0 3.565-.045 8.066.069 13.223v.913l.023.017c.873 36.721 9.755 104.812 94.606 104.812h75.188v-.125c69.665-2.704 118.309-67.857 118.309-136.986V575.978h56.96c45.97 0 61.868-29.396 66.637-40.001 6.612-15.095 11.775-51.137-28.232-92.86zM965.1 512H832.616v374.894c0 35.243-22.785 72.991-58.821 72.991h-73.933c-21.443-.878-26.486-9.88-27.41-25.945v-21.786c.034-2.299.068-4.655.068-7.12V828.41h-.069V694.943c0-70.607-22.658-118.965-94.72-118.965H446.997c-72.061 0-94.72 48.37-94.72 118.965v239.864c-1.107 16.356-6.76 25.21-30.828 25.21h-70.596c-35.99-.063-58.73-37.777-58.73-72.986V512.137H59.634c-1.192 0 .93.131 0 0 2.259-3.845 14.455-18.152 20.81-24.77L469.114 83.46c11.53-12.185 27.942-19.475 43.852-19.338 15.899-.132 31.262 7.284 42.916 19.338l388.54 403.771"/></svg>