<svg xmlns="http://www.w3.org/2000/svg" viewBox="0 0 1024 1024"><path d="M957.12 297.024c0-.128 0-.192.064-.256.512-.896.896-1.792 1.216-2.752.256-.512.448-.96.64-1.344.256-.768.256-1.408.448-2.112.192-.832.384-1.536.448-2.24.064-.448 0-.832 0-1.216.064-1.152.128-2.176 0-3.264-.064-.512-.192-1.024-.32-1.536-.128-.896-.256-1.856-.512-2.816-.128-.448-.384-.832-.512-1.28a23.401 23.401 0 00-1.152-2.944c0-.064-.064-.128-.064-.192a14.483 14.483 0 00-.832-1.28c-.512-.768-.96-1.6-1.536-2.304-.512-.64-1.088-1.216-1.6-1.728s-.96-1.024-1.472-1.472c-.768-.64-1.6-1.216-2.496-1.728-.384-.192-.64-.512-1.024-.704l-.384-.192s-.064 0-.128-.064L676.16 112.896c-.128-.064-.256-.128-.448-.256-.704-.32-1.344-.576-2.048-.896s-1.472-.64-2.24-.896c-.448-.128-.896-.192-1.344-.256a16.82 16.82 0 00-3.008-.64h-1.024c-1.152-.064-2.24-.064-3.392.064-.448.064-.896.192-1.28.256-1.024.128-1.984.32-3.072.64-.512.192-.96.384-1.408.576-.96.384-1.792.704-2.752 1.216l-.384.192L512 192.192l-141.76-79.296-.384-.192c-.896-.512-1.856-.768-2.752-1.152a31.811 31.811 0 00-1.408-.576 18.889 18.889 0 00-3.2-.64c-.32-.064-.704-.192-1.088-.256a22.476 22.476 0 00-3.584-.064h-.768c-1.152.128-2.24.32-3.328.64-.384.128-.704.128-1.024.192-.896.32-1.664.704-2.56 1.088a6.943 6.943 0 00-1.792.704c-.128.064-.32.128-.512.256L76.032 265.6l-.384.192c-.448.256-.768.576-1.088.832a15.397 15.397 0 00-2.496 1.664l-1.536 1.536c-.512.576-1.088 1.088-1.536 1.664-.64.704-1.088 1.6-1.6 2.368-.256.448-.576.768-.768 1.152-.064.064-.064.192-.064.256-.512.896-.832 1.856-1.152 2.752-.192.512-.448.96-.576 1.472-.256.704-.32 1.472-.448 2.304-.128.704-.32 1.344-.384 2.048v1.792c0 .896-.064 1.728 0 2.624.064.576.256 1.216.384 1.792.128.896.256 1.728.512 2.56.256.512.448.896.64 1.408.384.96.768 1.92 1.216 2.752 0 .064.064.128.064.256.128.128.32.256.384.512a23.553 23.553 0 002.88 3.776c.384.384.768.768 1.216 1.152.96.896 2.048 1.664 3.2 2.496.384.256.768.576 1.216.832.192.128.32.128.384.192l122.048 64.576-106.048 51.2c-.384.128-.768.448-1.152.64-.768.448-1.472.832-2.112 1.344-.64.384-1.152.896-1.728 1.408s-1.152.96-1.6 1.536c-.576.64-1.088 1.344-1.6 1.92-.32.384-.64.704-.896 1.088-.128.064-.192.32-.32.512-.384.704-.768 1.472-1.152 2.112-.32.704-.64 1.344-.896 1.92-.256.704-.384 1.344-.64 2.048-.128.896-.32 1.536-.448 2.304s-.128 1.408-.192 2.048c-.064.832-.128 1.6-.128 2.24 0 .832.128 1.472.256 2.176.064.768.192 1.6.32 2.304.128.64.32 1.216.576 1.92.256.832.512 1.6.896 2.368.064.256.128.384.192.64.128.192.32.384.448.64.832 1.408 1.664 2.88 2.816 4.16.256.256.448.64.768.896 1.216 1.28 2.496 2.368 3.968 3.456l137.216 91.136c-.384 1.6-.64 3.328-.64 5.056v135.552c0 .384.128.768.128 1.152.064 1.152.128 2.24.32 3.264.128.768.384 1.344.64 2.112.192.768.384 1.344.64 2.112s.64 1.344.96 1.984c.32.64.64 1.344 1.088 1.984.384.64.896 1.152 1.344 1.728.512.512.896 1.152 1.408 1.728.768.64 1.6 1.344 2.432 1.984.384.256.64.64 1.024.768l.064.128 262.976 179.776v.128c.448.256 1.024.512 1.536.768.512.384 1.024.64 1.472.896.832.384 1.664.768 2.56 1.024.384.128.832.256 1.28.384.32.128.64.256.96.256 1.664.384 3.328.64 5.056.64v.128c.064-.128.064-.256.064-.256 1.728 0 3.392-.256 4.992-.64.384 0 .64-.128 1.024-.256.448-.128.896-.256 1.28-.384.896-.256 1.728-.64 2.496-1.024a31.024 31.024 0 001.472-.768c.512-.384 1.088-.64 1.472-.896.064 0 .128 0 .128-.128L787.84 711.872c.448-.256.768-.64 1.152-.896.768-.64 1.6-1.28 2.24-1.856.576-.64 1.024-1.28 1.472-1.728.384-.64.896-1.152 1.344-1.728.384-.64.704-1.344 1.024-1.984.384-.64.768-1.28 1.024-1.984.32-.768.512-1.344.704-2.112s.448-1.344.576-2.112c.256-1.152.32-2.24.384-3.392 0-.256.128-.64.128-1.024V557.568c0-1.728-.256-3.456-.64-4.992l137.28-91.2a33.606 33.606 0 003.968-3.392c.256-.32.448-.704.704-.96 1.152-1.28 2.048-2.688 2.88-4.16.128-.192.256-.384.384-.64.128-.192.128-.384.256-.576.384-.832.64-1.6.896-2.432.256-.704.384-1.28.64-1.856.128-.768.256-1.472.256-2.304.128-.704.256-1.344.256-2.112s0-1.472-.064-2.24-.064-1.344-.192-2.112c-.128-.704-.384-1.408-.512-2.112-.256-.768-.384-1.472-.704-2.176-.256-.64-.576-1.216-.832-1.792a16.223 16.223 0 00-1.28-2.304c-.128-.128-.128-.384-.256-.512-.256-.384-.64-.704-.896-1.024a24.078 24.078 0 00-1.6-1.984 11.48 11.48 0 00-1.6-1.472 11.884 11.884 0 00-1.728-1.408c-.704-.576-1.472-1.024-2.24-1.408-.384-.192-.768-.576-1.152-.704l-105.984-51.2 121.984-64.512c.128-.128.256-.128.384-.256l1.152-.768c1.28-.832 2.368-1.6 3.392-2.624.384-.32.768-.704 1.152-1.088 1.152-1.216 2.112-2.496 2.88-3.904.192-.064.32-.192.448-.32zM664.832 585.6l-108.096-70.528 218.88-117.952 100.096 48.32-210.88 140.16zm-305.664 0L148.224 445.44l100.096-48.32L467.2 515.072 359.168 585.6zm-.128-426.496l106.688 59.776-217.344 126.4-113.728-60.096 224.384-126.08zM512 487.232L295.808 370.688 512 245.056l216.256 125.632L512 487.232zm46.208-268.416l106.688-59.776 224.448 126.08-113.664 60.096-217.472-126.4zm-211.84 413.312c.256.128.576.256.896.384 1.28.768 2.56 1.344 3.968 1.856.576.256 1.152.512 1.856.768 1.856.512 3.776.768 5.696.768.064 0 .128.128.256.128.064 0 .128-.128.256-.128 1.92 0 3.84-.256 5.696-.768.64-.256 1.216-.512 1.792-.768 1.344-.384 2.688-1.024 3.968-1.728.256-.128.576-.256.832-.384l117.568-76.736v274.112l-217.28-148.48v-98.496l74.496 49.472zm405.76 49.024l-217.28 148.48V555.52l117.568 76.736c.32.128.576.256.832.384 1.28.768 2.624 1.344 3.968 1.856.64.128 1.152.384 1.728.64 1.856.512 3.84.768 5.76.768.064 0 .128.128.256.128 0 0 .064-.128.128-.128 1.984 0 3.968-.256 5.888-.896.64-.128 1.216-.384 1.728-.64a25.1 25.1 0 003.968-1.856c.32-.256.64-.256.896-.384l74.56-49.472v98.496z"/></svg>