<svg xmlns="http://www.w3.org/2000/svg" viewBox="0 0 1024 1024"><path d="M398.592 801.365l-82.39-22.101 33.58-125.397a468.821 468.821 0 01-138.113-79.872l-91.861 91.904-60.373-60.374 91.904-91.861a467.499 467.499 0 01-101.163-216.32l83.968-15.317C166.528 461.312 323.371 597.333 512 597.333c188.587 0 345.472-136.021 377.856-315.306l83.968 15.274a467.499 467.499 0 01-101.12 216.363l91.861 91.861-60.373 60.374-91.861-91.904a468.821 468.821 0 01-138.112 79.872l33.578 125.44-82.389 22.058-33.621-125.44a472.405 472.405 0 01-159.574 0l-33.621 125.44z"/></svg>