<svg xmlns="http://www.w3.org/2000/svg" viewBox="0 0 1024 1024"><path d="M512 192C288.672 192 95.104 322.048 0 512c95.104 189.952 288.672 320 512 320 223.328 0 416.864-130.048 512-320-95.104-189.952-288.672-320-512-320zm252.448 169.696c60.16 38.368 111.136 89.76 149.44 150.304-38.304 60.512-89.28 111.936-149.44 150.304C688.864 710.528 601.568 736 512 736c-89.568 0-176.864-25.472-252.448-73.696-60.16-38.368-111.136-89.792-149.44-150.304 38.304-60.512 89.28-111.936 149.44-150.304a406.298 406.298 0 0111.872-7.296C261.44 381.728 256 411.232 256 442.016c0 141.376 114.624 256 256 256s256-114.624 256-256c0-30.784-5.44-60.256-15.392-87.584a378.707 378.707 0 0111.84 7.264zM512 410.016c0 53.024-42.976 96-96 96s-96-42.976-96-96 42.976-96 96-96 96 42.976 96 96z"/></svg>