<svg xmlns="http://www.w3.org/2000/svg" viewBox="0 0 1024 1024"><path d="M512 737c-161.25 0-288.75-75-375-225 86.25-150 213.75-225 375-225s288.75 75 375 225c-86.25 150-213.75 225-375 225zm7.5-375c-112.5 0-225 48.75-288.75 150C294.5 613.25 407 662 519.5 662s210-48.75 273.75-150C729.5 410.75 632 362 519.5 362zM512 624.5c-63.75 0-112.5-48.75-112.5-112.5S448.25 399.5 512 399.5 624.5 448.25 624.5 512 575.75 624.5 512 624.5zm0-75c22.5 0 37.5-15 37.5-37.5s-15-37.5-37.5-37.5-37.5 15-37.5 37.5 15 37.5 37.5 37.5z"/></svg>