<svg xmlns="http://www.w3.org/2000/svg" class="icon" viewBox="0 0 1024 1024"><path d="M803.758 514.017c-.001-.311-.013-.622-.018-.933-.162-23.974-9.386-47.811-27.743-65.903-.084-.082-.172-.157-.256-.239-.154-.154-.296-.315-.451-.468L417.861 94.096c-37.685-37.153-99.034-37.476-136.331-.718-37.297 36.758-36.979 97.231.707 134.384l290.361 286.257-290.362 286.257c-37.685 37.153-38.004 97.625-.707 134.383 37.297 36.758 98.646 36.435 136.331-.718l357.43-352.378c.155-.153.297-.314.451-.468.084-.082.172-.157.256-.239 18.354-18.089 27.578-41.922 27.743-65.892.004-.315.017-.631.018-.947z"/></svg>