<svg xmlns="http://www.w3.org/2000/svg" viewBox="0 0 1024 1024"><path d="M512.686 683.849a170.736 170.736 0 11170.736-170.736A170.935 170.935 0 01512.686 683.85zm507.868-228.66c-1.62-14.377-18.395-25.194-32.911-25.194a113.03 113.03 0 01-77.36-196.729 28.413 28.413 0 003.099-38.59 506.028 506.028 0 00-81.079-81.979 28.513 28.513 0 00-38.91 3.14c-30.512 33.79-85.318 46.368-127.666 28.692A113.71 113.71 0 01596.585 33.4 28.413 28.413 0 00571.47 3.405a511.127 511.127 0 00-115.17-.3 28.473 28.473 0 00-25.353 29.452 113.97 113.97 0 01-70.102 109.212c-41.85 17.095-96.255 4.639-126.707-28.853a28.553 28.553 0 00-38.63-3.239 507.588 507.588 0 00-82.818 81.859 28.493 28.493 0 003.059 38.91 113.39 113.39 0 0128.612 127.626c-17.655 42.09-61.344 69.202-111.37 69.202A27.833 27.833 0 003.418 452.49a513.726 513.726 0 00-.22 116.39c1.62 14.456 18.895 25.133 33.571 25.133 44.569-1.14 87.378 26.473 105.333 70.142A113.85 113.85 0 01113.47 790.74a28.453 28.453 0 00-3.119 38.57 509.487 509.487 0 0080.98 81.978 28.473 28.473 0 0038.969-3.079c30.632-33.871 85.418-46.408 127.607-28.712a113.51 113.51 0 0169.262 111.09 28.413 28.413 0 0025.113 29.993 509.067 509.067 0 00115.17.3 28.473 28.473 0 0025.334-29.313 113.75 113.75 0 0169.981-109.151c42.11-17.196 96.315-4.619 126.767 28.852a28.593 28.593 0 0038.63 3.22 510.027 510.027 0 0082.819-81.98 28.433 28.433 0 00-3.06-38.889 113.43 113.43 0 01-28.632-127.627 114.59 114.59 0 01104.713-69.402l6.338.16a28.473 28.473 0 0029.992-25.093 511.587 511.587 0 00.2-116.47z"/></svg>